<?xml version="1.0" encoding="UTF-8"?>
<svg id="katman_1" data-name="katman 1" xmlns="http://www.w3.org/2000/svg" version="1.1" viewBox="0 0 512 128">
  <defs>
    <style>
      .cls-1 {
        fill: #55b25b;
      }

      .cls-1, .cls-2, .cls-3 {
        stroke-width: 0px;
      }

      .cls-1, .cls-3 {
        fill-rule: evenodd;
      }

      .cls-2 {
        fill: #000;
      }

      .cls-3 {
        fill: #fff;
      }
    </style>
  </defs>
  <rect class="cls-2" x="0" width="512" height="128" rx="22" ry="22"/>
  <g id="spotify-podcast-badge-blk-grn-330x80">
    <g id="Group-2">
      <path id="Combined-Shape" class="cls-1" d="M277.9,60.1c1.7.9,3.9.2,4.8-1.5.9-1.6.3-3.6-1.2-4.7-14.1-8.3-36.3-9.2-49.7-5.1-1.8.7-2.8,2.7-2.2,4.6.7,1.7,2.4,2.7,4.2,2.3,11.7-3.5,31.9-2.8,44.1,4.4h0ZM277.5,70.9c.9-1.4.4-3.3-1-4.1-11.7-7.3-28.8-9.2-42.6-5.1-1.5.5-2.4,2.3-1.7,3.8.5,1.4,2.1,2.3,3.5,1.8,12-3.7,27.5-1.8,37.8,4.4,1.3,1,3.1.5,4-.9h0ZM272.8,81.3c.7-1.1.3-2.6-.8-3.3-10-6.2-22.4-7.6-36.9-4.2-1.3.4-2,1.7-1.6,2.9.3,1.2,1.5,1.8,2.6,1.6,13.2-3,24.3-1.8,33.3,3.7,1.3.7,2.7.3,3.4-.8h0ZM255.5,26.3c21-.1,38.3,16.9,38.4,37.9s-16.9,38.3-37.9,38.4-38.3-16.9-38.4-37.9v-.2c0-20.9,16.9-38,37.9-38.2h0ZM320.7,61.5c8,2,11.3,5,11.3,10.5s-4.9,10.6-12.6,10.6-10.5-2-14.4-5.5c-.2-.2-.2-.4,0-.7h0l3.6-4.3c.1,0,.2,0,.3,0s.2,0,.3,0c2.8,2.7,6.5,4.3,10.4,4.3s5.5-1.5,5.5-3.9-1.1-3.4-7.3-4.9c-7.4-1.8-11.6-4.1-11.6-10.6s4.9-10.4,12-10.4c4.6,0,9,1.5,12.6,4.3.2,0,.2.4.1.5l-3.3,4.6c-.1,0-.2,0-.3.2h-.3c-2.5-2.1-5.6-3.3-8.9-3.4-3,0-5.1,1.4-5.1,3.7s1,3.4,7.6,4.9h0ZM354.7,68.8c0-4.6-2.9-7.8-6.8-7.8s-7,3.4-7,7.8,3,7.8,7,7.8,6.8-3.1,6.8-7.8ZM349.1,55c6.2,0,12.4,4.8,12.4,13.9s-6.2,13.9-12.4,13.9c-3.1,0-6.2-1.3-8.2-3.8v10.6c0,.2-.2.4-.4.4h-5.9c-.2,0-.4-.2-.4-.4v-33.5c0-.2.2-.4.4-.4h5.9c.2,0,.4.2.4.4h0v3c2-2.7,5-4.1,8.2-4.1h0ZM377.3,76.8c4,0,7.4-3.3,7.4-7.3v-.4c.2-4.1-2.9-7.7-7-7.9h-.3c-4,0-7.3,3.3-7.3,7.3v.5c-.2,4.1,2.9,7.7,7,7.9.1,0,.2,0,.2,0h0ZM377.3,55c7.7,0,13.8,6.4,13.7,14.1-.1,7.7-6.4,13.8-14.1,13.7-7.5,0-13.5-6.3-13.7-13.8-.1-7.6,6.1-13.9,13.7-14h.4ZM408.3,55.5c.2,0,.4.2.4.4h0v5.1c0,.2-.2.4-.4.4h-6.5v12.1c0,2,.9,2.8,2.7,2.8s2.4-.3,3.5-.9.4,0,.5.2v5.1c0,0-.1.3-.2.3-1.6,1-3.6,1.4-5.5,1.4-5.2,0-7.8-2.7-7.8-8v-13.1h-2.8c-.2,0-.4-.2-.4-.4v-5.1c0-.2.2-.4.4-.4h2.9v-6.6c0-.2.2-.4.4-.4h5.9c.2,0,.4.2.4.4h0v6.6h6.5ZM430.7,55.5h10c.2,0,.3,0,.4.3l6.8,18,6.3-18c.1-.2.2-.3.4-.3h6.1c.1,0,.2,0,.3.2.1,0,.1.2,0,.4l-10.2,26.4c-2.1,5.4-4.4,7.5-8.8,7.5s-4.3-.5-6.3-1.6c-.2,0-.3-.3-.2-.5l2-4.4c0,0,.1-.2.2-.2h.3c1,.5,2.1.9,3.3,1,1.3,0,2.3-.4,3.1-2.5l-8.3-20.2h-5.4v20.3c0,.2-.2.4-.4.4h-5.9c-.2,0-.4-.2-.4-.4v-20.2h-2.8c-.2,0-.4-.2-.4-.4v-5.1c0-.2.2-.4.4-.4h2.8v-1.5c0-5.7,2.8-8.9,8.2-8.9s3.3.2,4.9.7c.2,0,.3.2.3.4v4.9c0,0-.1.2-.2.3s-.2,0-.4,0c-1.1-.4-2.2-.7-3.3-.7-2.1,0-2.9,1.1-2.9,3.5v1.1h.1ZM417.7,55.5c.2,0,.4.2.4.4h0v25.7c0,.2-.2.4-.4.4h-5.9c-.2,0-.4-.2-.4-.4v-25.7c0-.2.2-.4.4-.4,0,0,5.9,0,5.9,0ZM414.8,43.8c2.4,0,4.2,1.8,4.2,4.2s-1.8,4.2-4.2,4.2-4.2-1.8-4.2-4.2h0c0-2.3,2-4.2,4.2-4.2h0ZM466.4,58.1h-1.1v1.4h1.1c.5,0,.9-.2.9-.7s-.3-.8-.9-.8h0ZM467.2,60.1l1.2,1.6h-1l-1.1-1.5h-.9v1.5h-.9v-4.3h2.1c1,0,1.6.5,1.6,1.4-.1.7-.5,1.2-1.1,1.3h0ZM466.2,56c-2.1,0-3.8,1.6-3.8,3.7s1.6,3.8,3.7,3.8,3.8-1.6,3.8-3.7h0c.1-2.2-1.5-3.8-3.7-3.8q0,0,0,0ZM466.2,63.8c-2.3,0-4.2-1.8-4.2-4.1s1.8-4.2,4.1-4.2,4.2,1.8,4.2,4.1h0c.1,2.4-1.7,4.2-4.1,4.2.1,0,0,0,0,0h0Z"/>
      <path id="LISTEN-ON" class="cls-3" d="M51.7,73.8h-12.6v-19.5h3.8v15.9h8.7v3.6h.1ZM60.7,73.8h-3.9v-19.5h3.9v19.5ZM81,59l-3.5,1.1c-.3-1.7-1.8-2.9-3.6-2.7-1.5,0-2.9,1-3,2.5h0c0,1.1.7,2,2.2,2.2l2.7.5c3.6.7,5.4,3,5.4,5.7s-2.5,6.1-7,6.1-7.5-3.4-7.8-6.1l3.6-1c0,2.2,2,3.8,4.1,3.7h.2c2.1,0,3.3-1,3.3-2.4s-.9-2.1-2.4-2.3l-2.7-.5c-2.9-.3-5.1-2.7-5.1-5.6.2-3.6,3.3-6.3,6.8-6.2h0c4.6,0,6.4,2.7,6.8,5h0ZM101.6,57.9h-6.2v15.9h-3.8v-15.9h-6.2v-3.7h16.3v3.7h0ZM119,73.8h-12.2v-19.6h12.2v3.7h-8.5v4.4h7.6v3.4h-7.6v4.4h8.5v3.7ZM141.9,73.8h-4l-8.9-13.9v13.9h-3.8v-19.5h4.8l8.1,13v-13h3.8v19.5h0ZM160.3,64.2c-.2,3.4,2.4,6.3,5.7,6.4,3.4.2,6.3-2.4,6.4-5.7v-.7c.2-3.4-2.4-6.3-5.7-6.4-3.4-.2-6.3,2.4-6.4,5.7,0,0,0,.7,0,.7ZM156.4,64.2c-.2-5.5,4.1-10.2,9.6-10.4s10.2,4.1,10.4,9.6v.8c.2,5.5-4.1,10.2-9.6,10.4-5.5.2-10.2-4.1-10.4-9.6v-.8ZM199.1,73.8h-4l-8.9-13.9v13.9h-3.8v-19.6h4.8l8.1,13v-13h3.8v19.6h0Z"/>
    </g>
  </g>
</svg>