<?xml version="1.0" encoding="UTF-8"?>
<svg id="katman_1" data-name="katman 1" xmlns="http://www.w3.org/2000/svg" xmlns:xlink="http://www.w3.org/1999/xlink" version="1.1" viewBox="0 0 512 128">
  <defs>
    <style>
      .cls-1 {
        fill: none;
      }

      .cls-1, .cls-2, .cls-3, .cls-4 {
        stroke-width: 0px;
      }

      .cls-2 {
        fill: url(#linear-gradient);
        fill-rule: evenodd;
      }

      .cls-3 {
        fill: #000;
      }

      .cls-4 {
        fill: #fff;
      }
    </style>
    <linearGradient id="linear-gradient" x1="181.1" y1="-628.1" x2="181.1" y2="-707.2" gradientTransform="translate(-120.9 -605.8) scale(1 -1)" gradientUnits="userSpaceOnUse">
      <stop offset="0" stop-color="#ae6aa9"/>
      <stop offset="1" stop-color="#684092"/>
    </linearGradient>
  </defs>
  <rect class="cls-3" x="0" width="512" height="128" rx="22" ry="22"/>
  <g id="US">
    <path class="cls-2" d="M98.2,90.9c-2,4.6-5.9,8.1-10.6,9.5-3.1.8-6.3,1.1-9.6,1h-35.6c-3.2.1-6.4-.2-9.6-1-4.8-1.4-8.7-4.9-10.6-9.5-1.2-3.6-1.7-7.4-1.6-11.2h0v-35.6h0c-.2-3.8.3-7.6,1.6-11.2,2-4.6,5.8-8.1,10.6-9.5,3.1-.8,6.3-1.1,9.6-1h35.6c3.2-.1,6.4.2,9.6,1,4.8,1.5,8.7,5,10.6,9.6,1.2,3.6,1.7,7.4,1.6,11.2v35.5c0,3.8-.4,7.6-1.6,11.2Z"/>
    <path class="cls-1" d="M98.2,90.9c-2,4.6-5.9,8.1-10.6,9.5-3.1.8-6.3,1.1-9.6,1h-35.6c-3.2.1-6.4-.2-9.6-1-4.8-1.4-8.7-4.9-10.6-9.5-1.2-3.6-1.7-7.4-1.6-11.2h0v-35.6h0c-.2-3.8.3-7.6,1.6-11.2,2-4.6,5.8-8.1,10.6-9.5,3.1-.8,6.3-1.1,9.6-1h35.6c3.2-.1,6.4.2,9.6,1,4.8,1.5,8.7,5,10.6,9.6,1.2,3.6,1.7,7.4,1.6,11.2v35.5c0,3.8-.4,7.6-1.6,11.2Z"/>
    <path class="cls-4" d="M65.9,67.8c-1.6-1.4-3.6-2.2-5.7-2.1-2.1-.1-4.2.6-5.7,2.1-.6.6-1,1.4-1.1,2.3,0,2,0,4,0,6,.2,2.4.6,5.7,1.1,8.9.2,1.5.5,3,.9,4.5.8,1.9,2.7,3,4.7,2.7,2,.2,3.9-.9,4.7-2.7.4-1.5.7-3,.9-4.5.5-3.3.9-6.5,1.1-8.9.2-2,.3-4,0-6,0-.9-.4-1.7-1.1-2.3ZM53.7,56.7c0,3.6,2.9,6.5,6.5,6.5s6.5-2.9,6.5-6.5-2.9-6.5-6.5-6.5h0c-3.6,0-6.5,2.9-6.5,6.5ZM60,31.1c-15.4,0-27.8,12.5-27.7,27.9,0,11.8,7.5,22.2,18.6,26.1.2.1.4,0,.5-.2v-.2c-.2-.9-.3-1.9-.4-2.8,0-.3-.3-.6-.6-.8-12.3-5.3-17.9-19.6-12.6-31.9,5.3-12.3,19.6-17.9,31.9-12.6,12.3,5.3,17.9,19.6,12.6,31.9-2.4,5.6-6.9,10.1-12.6,12.6-.3.1-.5.4-.6.7,0,.9-.3,1.9-.4,2.8,0,.2,0,.4.3.4h.2c14.5-5.1,22.1-20.9,17-35.4-3.8-11.1-14.3-18.5-26.2-18.5h0ZM59.6,43.9c8.3-.3,15.3,6.2,15.6,14.5.2,4.4-1.6,8.6-4.8,11.6-.2.2-.4.6-.4.9,0,1.1,0,2.1,0,3.2,0,.2.2.4.4.4s0,0,.2-.1c8.5-5.8,10.7-17.4,4.9-25.9-5.8-8.5-17.4-10.7-25.9-4.9s-10.7,17.4-4.9,25.9c1.3,1.9,3,3.6,4.9,4.9.2.1.4.1.5-.1,0-.1,0-.1,0-.2,0-1.1,0-2.1,0-3.2,0-.3,0-.7-.4-.9-6.1-5.7-6.4-15.2-.7-21.3,2.8-3,6.5-4.7,10.5-4.8h0Z"/>
    <path class="cls-4" d="M142.3,86.5h-14.9l-3.6,10.5h-6.3l14.1-39h6.5l14.1,39h-6.4l-3.5-10.5ZM128.9,81.6h11.9l-5.8-17.1h-.2l-5.9,17.1Z"/>
    <path class="cls-4" d="M182.7,82.8c0,8.8-4.7,14.5-11.9,14.5-3.7.2-7.2-1.7-8.9-5h-.1v14.1h-5.9v-37.8h5.7v4.7h.1c1.9-3.2,5.3-5.2,9.1-5,7.1,0,11.9,5.7,11.9,14.5ZM176.7,82.8c0-5.8-3-9.6-7.5-9.6s-7.5,3.9-7.5,9.6,3,9.6,7.5,9.6,7.5-3.8,7.5-9.6h0Z"/>
    <path class="cls-4" d="M214,82.8c0,8.8-4.7,14.5-11.9,14.5-3.7.2-7.2-1.7-8.9-5h-.2v14.1h-5.8v-37.8h5.7v4.7h.1c1.9-3.2,5.3-5.2,9.1-5,7.1,0,11.9,5.7,11.9,14.5ZM208,82.8c0-5.8-3-9.6-7.5-9.6s-7.5,3.9-7.5,9.6,3,9.6,7.5,9.6c4.4,0,7.5-3.8,7.5-9.6Z"/>
    <path class="cls-4" d="M218.7,58h5.8v39h-5.8v-39Z"/>
    <path class="cls-4" d="M254.9,88.7c-.8,5.2-5.8,8.7-12.3,8.7s-13.4-5.5-13.4-14.4,5.2-14.7,13.2-14.7,12.8,5.4,12.8,14v2h-20.1v.4c0,4.9,3.1,8,7.7,8s5.8-1.6,6.6-4h5.5ZM235.2,80.2h14.3c-.1-4.3-2.9-7.2-7-7.2-4-.1-7.2,3.1-7.3,7.1h0Z"/>
    <path class="cls-4" d="M286.4,58c6.7-.3,12.5,4.9,12.8,11.6v1.2c0,7.6-5.4,12.9-13,12.9h-8.4v13.3h-6.1v-39h14.7ZM277.8,78.6h7c5.3,0,8.3-2.8,8.3-7.8s-3-7.8-8.2-7.8h-7v15.6h0Z"/>
    <path class="cls-4" d="M301.3,82.8c0-8.9,5.3-14.6,13.5-14.6s13.5,5.6,13.5,14.6-5.2,14.6-13.5,14.6-13.5-5.6-13.5-14.6ZM322.4,82.8c0-6.2-2.8-9.8-7.5-9.8s-7.5,3.6-7.5,9.8,2.8,9.8,7.5,9.8c4.6-.1,7.5-3.6,7.5-9.8Z"/>
    <path class="cls-4" d="M332.4,82.8c0-8.8,4.8-14.5,11.9-14.5,3.7-.2,7.2,1.8,8.9,5h.1v-15.3h5.9v39h-5.7v-4.8h-.1c-1.8,3.3-5.3,5.3-9.1,5.1-7,0-11.9-5.7-11.9-14.5ZM338.4,82.8c0,5.8,3,9.6,7.5,9.6s7.5-3.8,7.5-9.6-3-9.5-7.5-9.5-7.5,3.7-7.5,9.5Z"/>
    <path class="cls-4" d="M384.1,78.3c-.5-3.2-3.4-5.5-6.7-5.2-4.5,0-7.5,3.8-7.5,9.7s3,9.7,7.5,9.7,6-1.8,6.7-5.1h5.6c-.7,6-5.4,10-12.3,10s-13.4-5.5-13.4-14.6,5.3-14.6,13.4-14.6,11.8,4.7,12.4,10.1h-5.7Z"/>
    <path class="cls-4" d="M393.3,88.9c0-5,3.8-8,10.6-8.4l7.8-.4v-2.1c0-3.1-2.1-4.9-5.6-4.9s-5.5,1.6-6,4h-5.5c.2-5.1,4.9-8.8,11.6-8.8s11.3,3.7,11.3,9.3v19.4h-5.6v-4.7h-.1c-1.8,3.2-5.3,5.2-9,5.2-5.6,0-9.5-3.5-9.5-8.6ZM411.6,86.4v-2.2l-7,.4c-3.5.2-5.5,1.7-5.5,4.2s2,4.1,5.2,4.1c3.7.3,7-2.6,7.3-6.3v-.2Z"/>
    <path class="cls-4" d="M433.7,68.2c6.3,0,10.9,3.5,10.9,8.5h-5.5c-.2-2.5-2.4-4.1-5.6-4.1s-5.3,1.4-5.3,3.7,1.4,2.8,4.4,3.6l4.8,1.1c5.7,1.4,7.9,3.5,7.9,7.6s-4.9,8.6-11.8,8.6-11.2-3.4-11.6-8.6h5.8c.4,2.7,2.6,4.2,6.2,4.2s5.7-1.4,5.7-3.7-1.1-2.7-4.1-3.5l-5.1-1.2c-5.1-1.2-7.8-3.9-7.8-7.8s4.5-8.4,11.1-8.4Z"/>
    <path class="cls-4" d="M458,61.8v6.8h5.4v4.7h-5.4v15.5c0,2.4,1.1,3.6,3.5,3.6s1.6-.1,1.9-.1v4.7c-1.1.2-2.2.3-3.2.3-5.8,0-8-2.2-8-7.7v-16.3h-4.2v-4.5h4.1v-6.8h5.9v-.2Z"/>
    <path class="cls-4" d="M479.1,68.2c6.3,0,10.9,3.5,10.9,8.5h-5.5c-.2-2.5-2.4-4.1-5.6-4.1s-5.3,1.4-5.3,3.7,1.4,2.8,4.3,3.6l4.8,1.1c5.7,1.4,7.9,3.5,7.9,7.6s-4.9,8.6-11.8,8.6-11.2-3.4-11.7-8.6h5.9c.4,2.7,2.6,4.2,6.1,4.2s5.7-1.4,5.7-3.7-1.1-2.7-4.1-3.5l-5.1-1.2c-5.1-1.2-7.8-3.9-7.8-7.8.2-4.9,4.7-8.4,11.3-8.4Z"/>
    <path class="cls-4" d="M132,45.1h-11.7v-18.7h2.9v16.1h8.8v2.6Z"/>
    <path class="cls-4" d="M135.4,26.8c.1-1,1-1.7,2-1.6.9.1,1.6.8,1.6,1.6-.1,1-1,1.7-2,1.6-.8,0-1.5-.7-1.6-1.6ZM135.8,31h2.8v14.1h-2.8v-14.1Z"/>
    <path class="cls-4" d="M148.3,30.7c3.1,0,5.3,1.6,5.5,4h-2.7c-.3-1-1.3-1.7-2.9-1.7s-2.8.7-2.8,1.8.7,1.4,2.2,1.7l2.4.5c2.7.6,3.9,1.8,3.9,3.9s-2.5,4.5-5.9,4.5-5.6-1.6-5.8-4h2.8c.5,1.2,1.8,2,3.1,1.8,1.7,0,3-.8,3-1.9s-.7-1.4-2.1-1.7l-2.5-.6c-2.7-.6-3.9-1.8-3.9-3.9.2-2.6,2.5-4.4,5.7-4.4Z"/>
    <path class="cls-4" d="M161.5,27.4v3.6h3.1v2.4h-3.1v7.3c0,1.5.6,2.1,2,2.1h1.1v2.3c-.5.1-1,.1-1.6.1-3.1,0-4.3-1.1-4.3-3.8v-8.1h-2.3v-2.3h2.3v-3.6h2.8Z"/>
    <path class="cls-4" d="M180.1,41.3c-.6,2.5-2.9,4.1-6.2,4.1s-6.5-2.8-6.5-7.3,2.5-7.4,6.5-7.4,6.3,2.7,6.3,7.1v1h-9.8v.2c-.2,2.1,1.3,3.9,3.4,4h.4c1.4.2,2.7-.5,3.4-1.7h2.5ZM170.3,36.7h7.1c.1-1.9-1.3-3.5-3.2-3.7h-.3c-1.9,0-3.6,1.6-3.6,3.7h0Z"/>
    <path class="cls-4" d="M184,31h2.7v2.3h.2c.7-1.7,2.4-2.7,4.2-2.5,3.1,0,4.9,1.9,4.9,5.3v9.2h-2.8v-8.5c0-2.3-1-3.4-3.1-3.4-1.8-.1-3.3,1.3-3.4,3.1v8.8h-2.8v-14.3Z"/>
    <path class="cls-4" d="M207.3,38c0-4.6,2.5-7.3,6.7-7.3s6.7,2.8,6.7,7.3-2.5,7.3-6.7,7.3-6.7-2.7-6.7-7.3ZM217.8,38c0-3.1-1.4-4.9-3.8-4.9s-3.8,1.8-3.8,4.9,1.4,4.9,3.8,4.9,3.8-1.8,3.8-4.9Z"/>
    <path class="cls-4" d="M224.4,31h2.7v2.3h.2c.7-1.7,2.4-2.7,4.2-2.5,3.1,0,4.9,1.9,4.9,5.3v9.2h-2.8v-8.5c0-2.3-1-3.4-3.1-3.4-1.8-.1-3.3,1.3-3.4,3.1v8.8h-2.8v-14.3Z"/>
  </g>
</svg>