<?xml version="1.0" encoding="UTF-8"?>
<svg id="Capa_1" data-name="Capa 1" xmlns="http://www.w3.org/2000/svg" version="1.1" viewBox="0 0 512 128">
  <defs>
    <style>
      .cls-1 {
        fill: #010101;
      }

      .cls-1, .cls-2, .cls-3, .cls-4 {
        stroke-width: 0px;
      }

      .cls-2, .cls-3 {
        fill: #fff;
      }

      .cls-2, .cls-4 {
        fill-rule: evenodd;
      }

      .cls-4 {
        fill: #e11b22;
      }
    </style>
  </defs>
  <rect class="cls-1" x="0" width="512" height="128" rx="22" ry="22"/>
  <g>
    <path class="cls-4" d="M116.3,25.1c9.7,0,22.5.1,32,1,7.6.7,9.5,1.8,11.5,3.6,5.2,4.7,6.3,17.4,6.5,30v8.1c-.2,12.6-1.3,25.3-6.5,30-2,1.8-3.9,2.9-11.5,3.6-9.5.9-22.3,1-32,1h-12c-9.7,0-22.5,0-32-1-7.6-.7-9.5-1.8-11.5-3.6-5.2-4.7-6.3-17.6-6.5-30.3v-7.2c0-12.8,1.2-25.8,6.5-30.6,2-1.8,3.9-2.9,11.5-3.6,9.5-.9,22.3-1,32-1s8,0,12,0Z"/>
    <polygon class="cls-2" points="99.3 47.7 99.3 80.9 127.6 63.8 99.3 47.7"/>
  </g>
  <g>
    <path class="cls-3" d="M222.1,71.3c0-1.8-.6-3.2-1.9-4.1-1.3-1-3.5-2-6.9-3-3.3-1-6-2.1-7.9-3.3-3.7-2.3-5.6-5.4-5.6-9.2s1.4-6,4.1-8.2c2.7-2.2,6.2-3.2,10.5-3.2s5.4.5,7.7,1.6,4,2.5,5.2,4.5c1.3,2,1.9,4.1,1.9,6.5h-7.1c0-2.2-.6-3.8-2-5-1.4-1.2-3.2-1.8-5.8-1.8s-4.1.5-5.4,1.5c-1.3,1-1.9,2.3-1.9,4.1s.7,2.8,2.1,3.8c1.4,1,3.7,2,6.9,2.9,3.2,1,5.8,2,7.7,3.2,1.9,1.2,3.3,2.6,4.2,4.1.9,1.5,1.4,3.4,1.4,5.5,0,3.4-1.4,6.1-4,8.1s-6.1,3.1-10.6,3.1-5.7-.5-8.2-1.6c-2.5-1.1-4.4-2.6-5.8-4.5s-2.1-4.1-2.1-6.8h7.1c0,2.3.8,4.1,2.3,5.4,1.5,1.3,3.8,1.9,6.6,1.9s4.3-.5,5.6-1.5,1.9-2.3,1.9-4h0Z"/>
    <path class="cls-3" d="M253.7,78.9c-2,2.3-4.9,3.5-8.6,3.5s-5.8-1-7.5-2.9c-1.7-1.9-2.5-4.7-2.5-8.4v-19.7h6.9v19.7c0,3.9,1.6,5.8,4.8,5.8s5.6-1.2,6.8-3.6v-21.9h6.9v30.5h-6.5l-.2-3h0Z"/>
    <path class="cls-3" d="M294.5,67c0,4.7-1.1,8.5-3.2,11.3-2.1,2.8-5,4.2-8.7,4.2s-6.3-1.3-8.3-3.9l-.4,3.3h-6.2v-43.3h6.9v15.7c2-2.3,4.6-3.5,7.9-3.5s6.7,1.4,8.7,4.1c2.2,2.8,3.2,6.6,3.2,11.5v.4h0ZM287.6,66.4c0-3.3-.5-5.8-1.7-7.4s-2.9-2.5-5-2.5-5,1.3-6.2,3.9v12.5c1.3,2.6,3.3,4,6.3,4s3.8-.8,5-2.4c1.2-1.6,1.8-4,1.8-7.2v-.9h0Z"/>
    <path class="cls-3" d="M317.8,73.7c0-1.3-.5-2.2-1.5-2.8s-2.7-1.2-5-1.7c-2.3-.5-4.2-1.1-5.9-1.9-3.4-1.6-5.1-4.1-5.1-7.2s1.1-4.9,3.3-6.6c2.3-1.8,5-2.6,8.5-2.6s6.6.9,8.8,2.7,3.3,4.1,3.3,7h-6.9c0-1.4-.5-2.4-1.4-3.2-1-.9-2.3-1.4-3.9-1.4s-2.7.4-3.7,1.1-1.4,1.6-1.4,2.8.5,1.9,1.4,2.4c.9.5,2.7,1.2,5.3,1.8,2.7.6,4.8,1.3,6.3,2.1s2.7,1.8,3.4,3,1.1,2.5,1.1,4.1c0,2.7-1.2,5-3.4,6.7s-5.2,2.5-8.9,2.5-4.7-.5-6.7-1.4c-2-.9-3.5-2.2-4.6-3.7-1.1-1.6-1.6-3.2-1.6-5.1h6.7c0,1.6.7,2.9,1.8,3.7s2.6,1.4,4.5,1.4,3.2-.4,4.1-1c.9-.7,1.4-1.6,1.4-2.7h0Z"/>
    <path class="cls-3" d="M343.4,77c1.7,0,3.2-.5,4.2-1.5s1.7-2.3,1.8-3.7h6.5c0,1.9-.6,3.7-1.8,5.3-1.1,1.6-2.6,3-4.5,3.9-1.9,1-4,1.4-6.1,1.4-4.2,0-7.7-1.4-10.1-4.1-2.5-2.8-3.8-6.6-3.8-11.5v-.7c0-4.6,1.3-8.4,3.7-11.2s5.9-4.1,10.1-4.1,6.6,1.1,8.8,3.2,3.5,4.9,3.6,8.3h-6.5c0-1.7-.6-3.2-1.8-4.3-1.1-1.1-2.5-1.7-4.2-1.7s-4,.8-5.1,2.4c-1.2,1.6-1.8,4.1-1.8,7.3v1.1c0,3.3.6,5.8,1.8,7.4,1.2,1.6,2.9,2.4,5.1,2.4v.2Z"/>
    <path class="cls-3" d="M377.6,57.7c-.9-.2-1.8-.2-2.8-.2-3.2,0-5.2,1.2-6.3,3.6v20.8h-6.9v-30.5h6.5l.2,3.4c1.6-2.6,4-4,6.9-4s1.8,0,2.4.4v6.4h0Z"/>
    <path class="cls-3" d="M382.4,43.6c0-1.1.4-1.9,1-2.6.6-.7,1.6-1.1,2.9-1.1s2.2.4,2.9,1.1c.7.7,1,1.5,1,2.6s-.4,1.9-1,2.6c-.7.7-1.6,1-2.9,1s-2.2-.4-2.9-1c-.6-.7-1-1.5-1-2.6ZM389.7,82h-6.9v-30.5h6.9v30.5Z"/>
    <path class="cls-3" d="M424.3,67c0,4.7-1.1,8.5-3.2,11.3s-5,4.2-8.7,4.2-6.3-1.3-8.3-3.9l-.4,3.3h-6.2v-43.3h6.9v15.7c2-2.3,4.6-3.5,7.9-3.5s6.7,1.4,8.7,4.1c2.2,2.8,3.2,6.6,3.2,11.5v.4h0ZM417.5,66.4c0-3.3-.5-5.8-1.7-7.4s-2.9-2.5-5-2.5-5,1.3-6.2,3.9v12.5c1.3,2.6,3.3,4,6.3,4s3.8-.8,5-2.4c1.2-1.6,1.8-4,1.8-7.2v-.9h0Z"/>
    <path class="cls-3" d="M444,82.5c-4.3,0-7.8-1.4-10.5-4.1s-4.1-6.4-4.1-10.9v-.8c0-3.1.6-5.8,1.8-8.1,1.2-2.4,2.8-4.2,5-5.6s4.5-2,7.1-2c4.1,0,7.4,1.4,9.6,4,2.3,2.6,3.4,6.4,3.4,11.3v2.8h-19.9c.2,2.5,1.1,4.5,2.5,6,1.4,1.4,3.3,2.2,5.6,2.2s5.7-1.3,7.7-3.8l3.7,3.5c-1.3,1.8-2.9,3.2-4.9,4.2-2.1,1-4.3,1.5-6.9,1.5l-.2-.2ZM443.2,56.4c-1.9,0-3.4.6-4.5,2-1.2,1.4-1.9,3.2-2.3,5.5h13.1v-.5c-.2-2.3-.7-4.1-1.8-5.2s-2.5-1.8-4.4-1.8h0Z"/>
  </g>
</svg>