<?xml version="1.0" encoding="utf-8"?>
<!-- Generator: Adobe Illustrator 27.0.0, SVG Export Plug-In . SVG Version: 6.00 Build 0)  -->
<svg version="1.1" id="Layer_1" xmlns="http://www.w3.org/2000/svg" xmlns:xlink="http://www.w3.org/1999/xlink" x="0px" y="0px"
	 viewBox="0 0 1664 228" style="enable-background:new 0 0 1664 228;" xml:space="preserve">
<style type="text/css">
	.st0{fill:none;}
	.st1{fill:#FFFFFF;}
</style>
<rect x="0" y="0" class="st0" width="1664" height="228"/>
<path class="st1" d="M353.4,405.8"/>
<path class="st1" d="M353.4,405.8"/>
<g>
	<path class="st1" d="M57.6,161.9v-39.1c0-3.1-0.5-5.1-1.4-6c-0.9-0.9-2.9-1.4-6-1.4H31.3C15.8,115.4,8,107.8,8,92.7V50.5
		C8,35.5,15.9,28,31.8,28h25c15.8,0,23.8,7.5,23.8,22.5V74H57.3V54.1c0-3.1-0.5-5.1-1.5-6c-1-0.9-3.1-1.4-6.1-1.4H38.9
		c-3.1,0-5.1,0.5-6.1,1.4c-1,0.9-1.5,2.9-1.5,6v35.5c0,3.1,0.5,5.1,1.5,6c1,0.9,3.1,1.4,6.1,1.4h18.7c15.7,0,23.5,7.5,23.5,22.5v46
		c0,15-8,22.5-24,22.5H32.3c-15.8,0-23.8-7.5-23.8-22.5V142h23.3v19.9c0,3.1,0.5,5.1,1.5,6c1,0.9,3.1,1.4,6.1,1.4h10.7
		c3.1,0,5.1-0.5,6-1.4C57.1,167,57.6,165,57.6,161.9z"/>
	<path class="st1" d="M175.4,102.6h-22.7V89.3c0-3.1-0.5-5.1-1.5-6c-1-0.9-3.1-1.4-6.1-1.4h-11c-3.1,0-5.1,0.5-6.1,1.4
		c-1,0.9-1.5,2.9-1.5,6v72.6c0,3.1,0.5,5.1,1.5,6c1,0.9,3.1,1.4,6.1,1.4h11c3.1,0,5.1-0.5,6.1-1.4c1-0.9,1.5-2.9,1.5-6v-13.3h22.7
		v16.9c0,15-8,22.5-24,22.5h-24.3c-15.8,0-23.8-7.5-23.8-22.5V86c0-15.2,7.9-22.7,23.8-22.7h24.3c16,0,24,7.6,24,22.7V102.6z"/>
	<path class="st1" d="M219.9,63.3h27.3c15.8,0,23.8,7.6,23.8,22.7v79.5c0,15-7.9,22.5-23.8,22.5h-27.3c-15.7,0-23.5-7.5-23.5-22.5
		V86C196.4,70.9,204.2,63.3,219.9,63.3z M248.3,162.2V89.1c0-3.1-0.5-5.1-1.5-6.1c-1-1-3.1-1.5-6.1-1.5h-14.1c-3.1,0-5.1,0.5-6,1.5
		c-0.9,1-1.4,3.1-1.4,6.1v73.1c0,3.1,0.5,5.1,1.4,6.1c0.9,1,2.9,1.5,6,1.5h14.1c3.1,0,5.1-0.5,6.1-1.5
		C247.7,167.3,248.3,165.3,248.3,162.2z"/>
	<path class="st1" d="M337.5,81.9h-17.1v79c0,3.1,0.5,5.1,1.4,6c0.9,0.9,2.9,1.4,6,1.4h9.7V188h-16.4c-16,0-24-7.5-24-22.5V81.9
		h-11.8V63.3h11.8V42.1h23.3v21.2h17.1V81.9z"/>
	<path class="st1" d="M399.6,81.9h-17.1v79c0,3.1,0.5,5.1,1.4,6c0.9,0.9,2.9,1.4,6,1.4h9.7V188h-16.4c-16,0-24-7.5-24-22.5V81.9
		h-11.8V63.3h11.8V42.1h23.3v21.2h17.1V81.9z"/>
	<path class="st1" d="M482.2,188H462V28h25.3l27.3,99.2L542,28h25.3v160h-20.2V70.9l-22,82.3h-21l-22-82V188z"/>
	<path class="st1" d="M595.9,39.5V16.8h24v22.7H595.9z M619.4,188h-23V63.3h23V188z"/>
	<path class="st1" d="M717.1,102.6h-22.7V89.3c0-3.1-0.5-5.1-1.5-6c-1-0.9-3.1-1.4-6.1-1.4h-11c-3.1,0-5.1,0.5-6.1,1.4
		c-1,0.9-1.5,2.9-1.5,6v72.6c0,3.1,0.5,5.1,1.5,6c1,0.9,3.1,1.4,6.1,1.4h11c3.1,0,5.1-0.5,6.1-1.4c1-0.9,1.5-2.9,1.5-6v-13.3h22.7
		v16.9c0,15-8,22.5-24,22.5h-24.3c-15.8,0-23.8-7.5-23.8-22.5V86c0-15.2,7.9-22.7,23.8-22.7h24.3c16,0,24,7.6,24,22.7V102.6z"/>
	<path class="st1" d="M778.2,63.3h8.9c15.5,0,23.3,7.6,23.3,22.7v102h-23V89.3c0-3.1-0.5-5.1-1.5-6c-1-0.9-3.1-1.4-6.1-1.4h-8.9
		c-3.1,0-5.2,0.7-6.5,2c-1.3,1.4-1.9,3.7-1.9,6.9V188h-23V17h23v56.2C764.5,66.6,769.8,63.3,778.2,63.3z"/>
	<path class="st1" d="M882.2,63.3h23V188h-23v-10c-2.2,6.6-7.5,10-15.8,10h-9.2c-15.3,0-23-7.5-23-22.5V86c0-15.2,7.7-22.7,23-22.7
		h9.2c8.3,0,13.6,3.3,15.8,10V63.3z M864.8,169.3h8.9c3.1,0,5.2-0.7,6.5-2c1.3-1.4,1.9-3.7,1.9-6.9V90.9c0-3.2-0.6-5.5-1.9-6.9
		c-1.3-1.4-3.5-2-6.5-2h-8.9c-3.1,0-5.1,0.5-6.1,1.4c-1,0.9-1.5,2.9-1.5,6v72.6c0,3.1,0.5,5.1,1.5,6
		C859.7,168.9,861.7,169.3,864.8,169.3z"/>
	<path class="st1" d="M954,63.3h25c16,0,24,7.6,24,22.7v46.8h-50.4v29.6c0,2.9,0.5,4.9,1.5,5.9s3.1,1.5,6.1,1.5h11.8
		c3.1,0,5.1-0.5,6.1-1.5s1.5-3.1,1.5-6.1V152h22.5v13.5c0,15-7.9,22.5-23.8,22.5H954c-15.8,0-23.8-7.5-23.8-22.5V86
		C930.2,70.9,938.2,63.3,954,63.3z M952.7,115.9h27.6V88.8c0-2.9-0.5-4.9-1.4-5.9c-0.9-1-2.9-1.5-6-1.5h-12.5
		c-3.1,0-5.1,0.5-6.1,1.5s-1.5,3-1.5,5.9V115.9z"/>
	<path class="st1" d="M1048.8,188h-23V17h23V188z"/>
	<path class="st1" d="M1177,28h21.2v160H1175l-33.7-115.5V188H1120V28h24.3l32.7,112.2V28z"/>
	<path class="st1" d="M1272.3,63.3h23V188h-23v-10c-2.2,6.6-7.5,10-15.8,10h-9.2c-15.3,0-23-7.5-23-22.5V86c0-15.2,7.7-22.7,23-22.7
		h9.2c8.3,0,13.6,3.3,15.8,10V63.3z M1254.9,169.3h8.9c3.1,0,5.2-0.7,6.5-2c1.3-1.4,1.9-3.7,1.9-6.9V90.9c0-3.2-0.6-5.5-1.9-6.9
		c-1.3-1.4-3.5-2-6.5-2h-8.9c-3.1,0-5.1,0.5-6.1,1.4c-1,0.9-1.5,2.9-1.5,6v72.6c0,3.1,0.5,5.1,1.5,6
		C1249.8,168.9,1251.9,169.3,1254.9,169.3z"/>
	<path class="st1" d="M1363.1,81.9h-17.1v79c0,3.1,0.5,5.1,1.4,6c0.9,0.9,2.9,1.4,6,1.4h9.7V188h-16.4c-16,0-24-7.5-24-22.5V81.9
		h-11.8V63.3h11.8V42.1h23.3v21.2h17.1V81.9z"/>
	<path class="st1" d="M1418.8,63.3h8.9c15.5,0,23.3,7.6,23.3,22.7v102h-23V89.3c0-3.1-0.5-5.1-1.5-6c-1-0.9-3.1-1.4-6.1-1.4h-8.9
		c-3.1,0-5.2,0.7-6.5,2c-1.3,1.4-1.9,3.7-1.9,6.9V188h-23V17h23v56.2C1405.1,66.6,1410.4,63.3,1418.8,63.3z"/>
	<path class="st1" d="M1522.8,63.3h23V188h-23v-10c-2.2,6.6-7.5,10-15.8,10h-9.2c-15.3,0-23-7.5-23-22.5V86c0-15.2,7.7-22.7,23-22.7
		h9.2c8.3,0,13.6,3.3,15.8,10V63.3z M1505.4,169.3h8.9c3.1,0,5.2-0.7,6.5-2c1.3-1.4,1.9-3.7,1.9-6.9V90.9c0-3.2-0.6-5.5-1.9-6.9
		c-1.3-1.4-3.5-2-6.5-2h-8.9c-3.1,0-5.1,0.5-6.1,1.4c-1,0.9-1.5,2.9-1.5,6v72.6c0,3.1,0.5,5.1,1.5,6
		C1500.3,168.9,1502.4,169.3,1505.4,169.3z"/>
	<path class="st1" d="M1610.2,63.3h8.9c15.5,0,23.3,7.6,23.3,22.7v102h-23V89.3c0-3.1-0.5-5.1-1.5-6c-1-0.9-3.1-1.4-6.1-1.4h-8.9
		c-3.1,0-5.2,0.7-6.5,2c-1.3,1.4-1.9,3.7-1.9,6.9V188h-23V63.3h23v10C1596.6,66.6,1601.9,63.3,1610.2,63.3z"/>
</g>
</svg>
